<svg width="32" height="33" viewBox="0 0 32 33" fill="none" xmlns="http://www.w3.org/2000/svg">
<g id="vuesax/bold/coin">
<g id="coin">
<path id="Vector" d="M29.2267 22.8332C28.7867 26.3799 25.88 29.2866 22.3333 29.7266C20.1867 29.9932 18.1867 29.4065 16.6267 28.2599C15.7333 27.6065 15.9467 26.2199 17.0133 25.8999C21.0267 24.6865 24.1867 21.5132 25.4133 17.4999C25.7333 16.4465 27.12 16.2332 27.7733 17.1132C28.9067 18.6865 29.4933 20.6865 29.2267 22.8332Z" fill="#FF306E"/>
<path id="Vector_2" d="M13.32 3.16675C7.44001 3.16675 2.66667 7.94008 2.66667 13.8201C2.66667 19.7001 7.44001 24.4734 13.32 24.4734C19.2 24.4734 23.9733 19.7001 23.9733 13.8201C23.96 7.94008 19.2 3.16675 13.32 3.16675ZM12.0667 12.3267L15.28 13.4467C16.44 13.8601 17 14.6734 17 15.9267C17 17.3667 15.8533 18.5534 14.4533 18.5534H14.3333V18.6201C14.3333 19.1667 13.88 19.6201 13.3333 19.6201C12.7867 19.6201 12.3333 19.1667 12.3333 18.6201V18.5401C10.8533 18.4734 9.66667 17.2334 9.66667 15.6867C9.66667 15.1401 10.12 14.6867 10.6667 14.6867C11.2133 14.6867 11.6667 15.1401 11.6667 15.6867C11.6667 16.1667 12.0133 16.5534 12.44 16.5534H14.44C14.7467 16.5534 14.9867 16.2734 14.9867 15.9267C14.9867 15.4601 14.9067 15.4334 14.6 15.3267L11.3867 14.2067C10.24 13.8067 9.66667 12.9934 9.66667 11.7267C9.66667 10.2867 10.8133 9.10008 12.2133 9.10008H12.3333V9.04675C12.3333 8.50008 12.7867 8.04675 13.3333 8.04675C13.88 8.04675 14.3333 8.50008 14.3333 9.04675V9.12675C15.8133 9.19341 17 10.4334 17 11.9801C17 12.5267 16.5467 12.9801 16 12.9801C15.4533 12.9801 15 12.5267 15 11.9801C15 11.5001 14.6533 11.1134 14.2267 11.1134H12.2267C11.92 11.1134 11.68 11.3934 11.68 11.7401C11.6667 12.1934 11.7467 12.2201 12.0667 12.3267Z" fill="#FF306E"/>
</g>
</g>
</svg>
