<svg width="24" height="24" viewBox="0 0 24 24" fill="none" xmlns="http://www.w3.org/2000/svg">
<g clip-path="url(#clip0_3069_735)">
<path d="M12 24C18.3426 24 23.4844 18.6274 23.4844 12C23.4844 5.37258 18.3426 0 12 0C5.65735 0 0.515625 5.37258 0.515625 12C0.515625 18.6274 5.65735 24 12 24Z" fill="#E88102"/>
<path d="M12 22.7344C18.2779 22.7344 23.3672 17.6451 23.3672 11.3672C23.3672 5.08926 18.2779 0 12 0C5.72208 0 0.632812 5.08926 0.632812 11.3672C0.632812 17.6451 5.72208 22.7344 12 22.7344Z" fill="#FDD835"/>
<path opacity="0.5" d="M16.5359 0.942383L1.57344 15.9002C1.07187 14.7518 0.757812 13.5049 0.664062 12.1971L12.8281 0.0283203C14.1359 0.126758 15.3828 0.44082 16.5359 0.942383Z" fill="white"/>
<path opacity="0.5" d="M21.9047 5.78906L6.42187 21.2719C5.45625 20.7281 4.58437 20.0484 3.82031 19.2562L19.8937 3.1875C20.6812 3.94687 21.3609 4.82344 21.9047 5.78906Z" fill="white"/>
<path opacity="0.5" d="M19.4305 2.76055L3.39922 18.7918C3.15078 18.5012 2.91172 18.1965 2.69141 17.8824L18.5211 2.05273C18.8352 2.27305 19.1398 2.51211 19.4305 2.76055Z" fill="white"/>
<path opacity="0.5" d="M23.0117 8.53105L9.16484 22.3779C8.74766 22.2701 8.33984 22.1389 7.94141 21.9889L22.6227 7.30762C22.7727 7.70605 22.9039 8.11387 23.0117 8.53105Z" fill="white"/>
<path opacity="0.5" d="M23.3672 11.3672C23.3672 11.4469 23.3672 11.5219 23.3625 11.6016C23.2406 5.43281 18.2016 0.46875 12 0.46875C5.79844 0.46875 0.759375 5.43281 0.6375 11.6016C0.6375 11.5219 0.632812 11.4469 0.632812 11.3672C0.632812 5.09063 5.72344 0 12 0C18.2766 0 23.3672 5.09063 23.3672 11.3672Z" fill="white"/>
<path opacity="0.5" d="M21.2344 11.8594C21.2344 16.7766 17.2453 20.7656 12.3281 20.7656C9.56719 20.7656 7.09688 19.5047 5.46094 17.5312C7.0875 19.2891 9.4125 20.3906 12 20.3906C16.9172 20.3906 20.9062 16.4016 20.9062 11.4844C20.9062 9.32812 20.1422 7.35469 18.8672 5.8125C20.3344 7.40156 21.2344 9.525 21.2344 11.8594Z" fill="white"/>
<path d="M12 20.3906C16.9188 20.3906 20.9062 16.4032 20.9062 11.4844C20.9062 6.56559 16.9188 2.57812 12 2.57812C7.08121 2.57812 3.09375 6.56559 3.09375 11.4844C3.09375 16.4032 7.08121 20.3906 12 20.3906Z" fill="#F39E09"/>
<path d="M18.75 5.67188C17.1891 4.32656 15.1594 3.51562 12.9375 3.51562C8.02031 3.51562 4.03125 7.50469 4.03125 12.4219C4.03125 14.6438 4.84219 16.6734 6.1875 18.2344C4.29375 16.5984 3.09375 14.1844 3.09375 11.4844C3.09375 6.56719 7.08281 2.57812 12 2.57812C14.6953 2.57812 17.1141 3.77812 18.75 5.67188Z" fill="#E88102"/>
<path opacity="0.25" d="M19.4297 6.56719C13.6641 8.59219 9.03281 13.0406 6.76406 18.6891C6.56719 18.5438 6.375 18.3938 6.1875 18.2297C4.84219 16.6688 4.03125 14.6391 4.03125 12.4219C4.03125 7.50469 8.02031 3.51562 12.9375 3.51562C15.1594 3.51562 17.1891 4.32656 18.7453 5.67188C18.9937 5.95781 19.2188 6.25781 19.4297 6.56719Z" fill="white"/>
<g filter="url(#filter0_d_3069_735)">
<path d="M15.8571 8.14286H14.4643V6.75H13.0714V8.14286H11.6786V6.75H10.2857V8.14286H8.89286V9.53571H7.5V10.9286H8.89286V12.3214H7.5V13.7143H8.89286V15.1071H10.2857V16.5H11.6786V15.1071H13.0714V16.5H14.4643V15.1071H15.8571V13.7143H17.25V12.3214H15.8571V10.9286H17.25V9.53571H15.8571V8.14286ZM11.6786 10.9286H13.0714V12.3214H11.6786V10.9286Z" fill="#FDD835"/>
</g>
<mask id="mask0_3069_735" style="mask-type:alpha" maskUnits="userSpaceOnUse" x="7" y="6" width="11" height="11">
<path d="M15.8571 8.14286H14.4643V6.75H13.0714V8.14286H11.6786V6.75H10.2857V8.14286H8.89286V9.53571H7.5V10.9286H8.89286V12.3214H7.5V13.7143H8.89286V15.1071H10.2857V16.5H11.6786V15.1071H13.0714V16.5H14.4643V15.1071H15.8571V13.7143H17.25V12.3214H15.8571V10.9286H17.25V9.53571H15.8571V8.14286ZM11.6786 10.9286H13.0714V12.3214H11.6786V10.9286Z" fill="#FDD835"/>
</mask>
<g mask="url(#mask0_3069_735)">
<path opacity="0.5" d="M17.3719 1.66406L2.40937 16.6219C1.90781 15.4734 1.59375 14.2266 1.5 12.9188L13.6641 0.75C14.9719 0.848437 16.2187 1.1625 17.3719 1.66406Z" fill="white"/>
<path opacity="0.5" d="M22.7406 6.51074L7.25781 21.9936C6.29219 21.4498 5.42031 20.7701 4.65625 19.9779L20.7297 3.90918C21.5172 4.66855 22.1969 5.54512 22.7406 6.51074Z" fill="white"/>
<path opacity="0.5" d="M20.2625 3.48271L4.23125 19.514C3.98281 19.2233 3.74375 18.9187 3.52344 18.6046L19.3531 2.7749C19.6672 2.99521 19.9719 3.23428 20.2625 3.48271Z" fill="white"/>
<path opacity="0.5" d="M23.8438 9.25273L9.99688 23.0996C9.57969 22.9918 9.17188 22.8605 8.77344 22.7105L23.4547 8.0293C23.6047 8.42773 23.7359 8.83555 23.8438 9.25273Z" fill="white"/>
</g>
</g>
<defs>
<filter id="filter0_d_3069_735" x="7.5" y="6.75" width="9.75" height="10.75" filterUnits="userSpaceOnUse" color-interpolation-filters="sRGB">
<feFlood flood-opacity="0" result="BackgroundImageFix"/>
<feColorMatrix in="SourceAlpha" type="matrix" values="0 0 0 0 0 0 0 0 0 0 0 0 0 0 0 0 0 0 127 0" result="hardAlpha"/>
<feOffset dy="1"/>
<feComposite in2="hardAlpha" operator="out"/>
<feColorMatrix type="matrix" values="0 0 0 0 0.858824 0 0 0 0 0.403922 0 0 0 0 0.0156863 0 0 0 1 0"/>
<feBlend mode="normal" in2="BackgroundImageFix" result="effect1_dropShadow_3069_735"/>
<feBlend mode="normal" in="SourceGraphic" in2="effect1_dropShadow_3069_735" result="shape"/>
</filter>
<clipPath id="clip0_3069_735">
<rect width="24" height="24" fill="white"/>
</clipPath>
</defs>
</svg>
