<svg width="32" height="32" viewBox="0 0 32 32" fill="none" xmlns="http://www.w3.org/2000/svg">
<path d="M8 0.428571H24C28.1816 0.428571 31.5714 3.81842 31.5714 8V24C31.5714 28.1816 28.1816 31.5714 24 31.5714H8C3.81842 31.5714 0.428571 28.1816 0.428571 24V8C0.428571 3.81842 3.81842 0.428571 8 0.428571Z" stroke="#D8D8D8" stroke-width="0.857143"/>
<g clip-path="url(#clip0_1_1622)">
<path d="M8.34448 15.1686L14.168 9.3444C14.6273 8.88504 15.3722 8.88504 15.8315 9.3444C16.2908 9.80376 16.2908 10.5488 15.8315 11.0081L10.8403 15.9999L15.8315 20.9916C16.2908 21.451 16.2908 22.196 15.8315 22.6554C15.3722 23.1147 14.6273 23.1147 14.168 22.6554L8.34448 16.8312C7.88517 16.373 7.88517 15.628 8.34448 15.1686ZM15.3466 14.8159L19.97 9.94251C20.4345 9.45343 21.187 9.45343 21.6516 9.94251C22.1161 10.4316 22.1161 11.225 21.6516 11.7147L17.8687 15.702L21.6516 19.6893C22.1161 20.1784 22.1161 20.9724 21.6516 21.4615C21.187 21.9506 20.4345 21.9506 19.97 21.4615L15.3466 16.5881C14.882 16.099 14.882 15.3056 15.3466 14.8159Z" fill="#AEAEAE"/>
</g>
<defs>
<clipPath id="clip0_1_1622">
<rect width="16" height="16" fill="white" transform="translate(8 8)"/>
</clipPath>
</defs>
</svg>
