<svg width="49" height="48" viewBox="0 0 49 48" fill="none" xmlns="http://www.w3.org/2000/svg">
<path d="M0.666626 24C0.666626 10.7452 11.4118 0 24.6666 0C37.9215 0 48.6666 10.7452 48.6666 24C48.6666 37.2548 37.9215 48 24.6666 48C11.4118 48 0.666626 37.2548 0.666626 24Z" fill="#7D52F4"/>
<path fill-rule="evenodd" clip-rule="evenodd" d="M23.5134 33.9342C18.5338 33.3624 14.6666 29.1328 14.6666 24C14.6666 18.4772 19.1438 14 24.6666 14C30.1895 14 34.6666 18.4772 34.6666 24C34.6666 29.1565 31.3839 28.7325 28.5802 28.3703C26.963 28.1614 25.5052 27.9731 24.9285 28.888C24.5341 29.5136 24.9604 30.2938 25.4834 30.8168C26.1369 31.4703 26.1369 32.5297 25.4834 33.1832C24.9604 33.7062 24.2482 34.0186 23.5134 33.9342ZM23.7516 18.9998C23.7516 19.8282 23.0801 20.4998 22.2516 20.4998C21.4232 20.4998 20.7516 19.8282 20.7516 18.9998C20.7516 18.1713 21.4232 17.4998 22.2516 17.4998C23.0801 17.4998 23.7516 18.1713 23.7516 18.9998ZM19.1666 25C19.9951 25 20.6666 24.3284 20.6666 23.5C20.6666 22.6716 19.9951 22 19.1666 22C18.3382 22 17.6666 22.6716 17.6666 23.5C17.6666 24.3284 18.3382 25 19.1666 25ZM30.1666 25C30.9951 25 31.6666 24.3284 31.6666 23.5C31.6666 22.6716 30.9951 22 30.1666 22C29.3382 22 28.6666 22.6716 28.6666 23.5C28.6666 24.3284 29.3382 25 30.1666 25ZM27.1666 20.5C27.9951 20.5 28.6666 19.8284 28.6666 19C28.6666 18.1716 27.9951 17.5 27.1666 17.5C26.3382 17.5 25.6666 18.1716 25.6666 19C25.6666 19.8284 26.3382 20.5 27.1666 20.5Z" fill="white"/>
</svg>
