<svg
  xmlns="http://www.w3.org/2000/svg"
  width="16"
  height="16"
  viewBox="0 0 16 16"
  fill="none"
>
  <g clip-path="url(#clip0_1_1473)">
    <path
      fill-rule="evenodd"
      clip-rule="evenodd"
      d="M15.5953 6.97173L14.5107 5.71166C14.3033 5.47241 14.1359 5.0258 14.1359 4.7068V3.35104C14.1359 2.50568 13.442 1.81185 12.5967 1.81185H11.2409C10.9299 1.81185 10.4753 1.64437 10.236 1.43702L8.97598 0.352409C8.4257 -0.118121 7.52452 -0.118121 6.96626 0.352409L5.71414 1.44499C5.47489 1.64437 5.02031 1.81185 4.70928 1.81185H3.3296C2.48424 1.81185 1.79041 2.50568 1.79041 3.35104V4.71478C1.79041 5.0258 1.62293 5.47241 1.42355 5.71166L0.346916 6.97971C-0.115639 7.52999 -0.115639 8.42319 0.346916 8.97348L1.42355 10.2415C1.62293 10.4808 1.79041 10.9274 1.79041 11.2384V12.6021C1.79041 13.4475 2.48424 14.1413 3.3296 14.1413H4.70928C5.02031 14.1413 5.47489 14.3088 5.71414 14.5162L6.97424 15.6008C7.52452 16.0713 8.4257 16.0713 8.98396 15.6008L10.244 14.5162C10.4833 14.3088 10.9299 14.1413 11.2489 14.1413H12.6046C13.45 14.1413 14.1438 13.4475 14.1438 12.6021V11.2464C14.1438 10.9353 14.3113 10.4808 14.5187 10.2415L15.6033 8.98145C16.0658 8.43117 16.0658 7.52201 15.5953 6.97173ZM4.46967 4.46918C4.76256 4.17629 5.23744 4.17629 5.53033 4.46918L8 6.93885L10.4697 4.46918C10.7626 4.17629 11.2374 4.17629 11.5303 4.46918C11.8232 4.76207 11.8232 5.23695 11.5303 5.52984L9.06066 7.99951L11.5303 10.4692C11.8232 10.7621 11.8232 11.2369 11.5303 11.5298C11.2374 11.8227 10.7626 11.8227 10.4697 11.5298L8 9.06017L5.53033 11.5298C5.23744 11.8227 4.76256 11.8227 4.46967 11.5298C4.17678 11.2369 4.17678 10.7621 4.46967 10.4692L6.93934 7.99951L4.46967 5.52984C4.17678 5.23695 4.17678 4.76207 4.46967 4.46918Z"
      fill="#FF306E"
    />
  </g>
  <defs>
    <clipPath id="clip0_1_1473">
      <rect width="16" height="16" fill="white" />
    </clipPath>
  </defs>
</svg>