<svg width="20" height="20" viewBox="0 0 20 20" fill="none" xmlns="http://www.w3.org/2000/svg">
<path d="M3.33203 4.99984V15.8332C3.33203 17.2139 4.45132 18.3332 5.83203 18.3332H14.1654C15.5461 18.3332 16.6654 17.2139 16.6654 15.8332V7.49984C16.6654 6.11913 15.5461 4.99984 14.1654 4.99984H3.33203ZM3.33203 4.99984V4.1665" stroke="#FF306E" stroke-width="1.5"/>
<path d="M14.9987 5.00002V5.75002H15.7487V5.00002H14.9987ZM13.0963 1.93845L12.9903 1.19599L12.9903 1.19599L13.0963 1.93845ZM4.09836 3.22387L3.99229 2.48141L3.99229 2.48141L4.09836 3.22387ZM4.22459 5.75002H14.9987V4.25002H4.22459V5.75002ZM15.7487 5.00002V3.58837H14.2487V5.00002H15.7487ZM12.9903 1.19599L3.99229 2.48141L4.20443 3.96634L13.2024 2.68091L12.9903 1.19599ZM3.99229 2.48141C3.18309 2.59701 2.58203 3.29004 2.58203 4.10746H4.08203C4.08203 4.03652 4.1342 3.97637 4.20443 3.96634L3.99229 2.48141ZM15.7487 3.58837C15.7487 2.11771 14.4461 0.988006 12.9903 1.19599L13.2024 2.68091C13.7546 2.60202 14.2487 3.03053 14.2487 3.58837H15.7487ZM4.22459 4.25002C4.14586 4.25002 4.08203 4.18619 4.08203 4.10746H2.58203C2.58203 5.01462 3.31743 5.75002 4.22459 5.75002V4.25002Z" fill="#FF306E"/>
<path d="M6.66797 10H13.3346" stroke="#FF306E" stroke-width="1.5" stroke-linecap="round"/>
<path d="M6.66797 12.9165H11.2513" stroke="#FF306E" stroke-width="1.5" stroke-linecap="round"/>
</svg>
