<svg width="32" height="32" viewBox="0 0 32 32" fill="none" xmlns="http://www.w3.org/2000/svg">
<g id="vuesax/bold/coin">
<g id="coin">
<path id="Vector" d="M16 30.3334C10.6667 30.3334 6.33337 26.5067 6.33337 21.8V16.8667C6.33337 16.32 6.78671 15.8667 7.33337 15.8667C7.88004 15.8667 8.33337 16.32 8.33337 16.8667C8.33337 20.36 11.6267 23 16 23C20.3734 23 23.6667 20.36 23.6667 16.8667C23.6667 16.32 24.12 15.8667 24.6667 15.8667C25.2134 15.8667 25.6667 16.32 25.6667 16.8667V21.8C25.6667 26.5067 21.3334 30.3334 16 30.3334ZM8.33337 21.9467C8.42671 25.48 11.8267 28.3334 16 28.3334C20.1734 28.3334 23.5734 25.48 23.6667 21.9467C21.9334 23.8267 19.1867 25 16 25C12.8134 25 10.08 23.8267 8.33337 21.9467Z" fill="#FF306E"/>
<path id="Vector_2" d="M16 18.3334C12.32 18.3334 9.01336 16.68 7.40002 14.0134C6.70669 12.88 6.33337 11.56 6.33337 10.2C6.33337 7.90669 7.36005 5.74669 9.21338 4.12002C11.0267 2.53335 13.44 1.66669 16 1.66669C18.56 1.66669 20.96 2.53336 22.7867 4.10669C24.64 5.74669 25.6667 7.90669 25.6667 10.2C25.6667 11.56 25.2934 12.8667 24.6001 14.0134C22.9867 16.68 19.68 18.3334 16 18.3334ZM16 3.66669C13.92 3.66669 11.9734 4.36002 10.5201 5.64002C9.10673 6.86669 8.33337 8.49336 8.33337 10.2C8.33337 11.2 8.60002 12.1334 9.10669 12.9734C10.3734 15.0534 13.0134 16.3334 16 16.3334C18.9867 16.3334 21.6267 15.04 22.8934 12.9734C23.4134 12.1334 23.6667 11.2 23.6667 10.2C23.6667 8.49336 22.8934 6.86669 21.4667 5.61335C20.0134 4.36002 18.08 3.66669 16 3.66669Z" fill="#FF306E"/>
<path id="Vector_3" d="M16 25C10.4934 25 6.33337 21.5067 6.33337 16.8667V10.2C6.33337 5.49336 10.6667 1.66669 16 1.66669C18.56 1.66669 20.96 2.53336 22.7867 4.10669C24.64 5.74669 25.6667 7.90669 25.6667 10.2V16.8667C25.6667 21.5067 21.5067 25 16 25ZM16 3.66669C11.7734 3.66669 8.33337 6.60002 8.33337 10.2V11.5334C8.33337 15.0267 11.6267 17.6667 16 17.6667C20.3734 17.6667 23.6667 15.0267 23.6667 11.5334V10.2C23.6667 8.49336 22.8934 6.86669 21.4667 5.61335C20.0134 4.36002 18.08 3.66669 16 3.66669Z" fill="#FF306E"/>
</g>
</g>
</svg>
