<svg width="24" height="24" viewBox="0 0 24 24" fill="none" xmlns="http://www.w3.org/2000/svg">
<g id="Delete Icon">
<path id="Vector" d="M16.2817 3.89997L14.4817 5.69997H5.70039V18.3H18.3004V9.51867L20.1004 7.71867V19.2C20.1004 19.4387 20.0056 19.6676 19.8368 19.8364C19.668 20.0051 19.4391 20.1 19.2004 20.1H4.80039C4.5617 20.1 4.33278 20.0051 4.16399 19.8364C3.99521 19.6676 3.90039 19.4387 3.90039 19.2V4.79997C3.90039 4.56127 3.99521 4.33235 4.16399 4.16357C4.33278 3.99479 4.5617 3.89997 4.80039 3.89997H16.2817ZM19.6369 3.08997L20.9104 4.36437L12.6376 12.6372L11.3668 12.6399L11.365 11.3646L19.6369 3.08997Z" fill="#1B1B1B"/>
</g>
</svg>
