<svg width="49" height="48" viewBox="0 0 49 48" fill="none" xmlns="http://www.w3.org/2000/svg">
<path d="M24.6665 48C37.9213 48 48.6665 37.2548 48.6665 24C48.6665 10.7452 37.9213 0 24.6665 0C11.4117 0 0.666504 10.7452 0.666504 24C0.666504 37.2548 11.4117 48 24.6665 48Z" fill="#F06DFF"/>
<path d="M33.0357 15.9643H29.8214V12.75H26.6071V15.9643H23.3929V12.75H20.1786V15.9643H16.9643V19.1786H13.75V22.3929H16.9643V25.6071H13.75V28.8214H16.9643V32.0357H20.1786V35.25H23.3929V32.0357H26.6071V35.25H29.8214V32.0357H33.0357V28.8214H36.25V25.6071H33.0357V22.3929H36.25V19.1786H33.0357V15.9643ZM23.3929 22.3929H26.6071V25.6071H23.3929V22.3929Z" fill="white"/>
</svg>
