<svg width="20" height="20" viewBox="0 0 20 20" fill="none" xmlns="http://www.w3.org/2000/svg">
<path d="M5.74875 7.58317L9.74875 5.83317C9.91541 5.74984 10.0821 5.74984 10.3321 5.83317L14.3321 7.58317C14.6654 7.74984 14.9987 7.33317 14.7487 6.99984L10.5821 1.9165C10.3321 1.58317 9.83208 1.58317 9.58208 1.9165L5.41541 6.99984C5.08208 7.33317 5.41542 7.74984 5.74875 7.58317Z" stroke="#FF306E" stroke-width="1.5" stroke-miterlimit="10" stroke-linecap="round" stroke-linejoin="round"/>
<path d="M5.74875 12.4169L9.74875 14.1669C9.91541 14.2502 10.0821 14.2502 10.3321 14.1669L14.3321 12.4169C14.6654 12.2502 14.9987 12.6669 14.7487 13.0002L10.5821 18.0835C10.3321 18.4169 9.83208 18.4169 9.58208 18.0835L5.41541 13.0002C5.08208 12.6669 5.41542 12.2502 5.74875 12.4169Z" stroke="#FF306E" stroke-width="1.5" stroke-miterlimit="10" stroke-linecap="round" stroke-linejoin="round"/>
<path d="M10.0013 7.8335L5.66797 10.0002L10.0013 12.1668L14.3346 10.0002L10.0013 7.8335Z" stroke="#FF306E" stroke-width="1.5" stroke-miterlimit="10" stroke-linecap="round" stroke-linejoin="round"/>
</svg>
