<svg width="48" height="48" viewBox="0 0 48 48" fill="none" xmlns="http://www.w3.org/2000/svg">
<path d="M0 24C0 10.7452 10.7452 0 24 0C37.2548 0 48 10.7452 48 24C48 37.2548 37.2548 48 24 48C10.7452 48 0 37.2548 0 24Z" fill="#335CFF"/>
<path fill-rule="evenodd" clip-rule="evenodd" d="M24 34C29.5228 34 34 29.5228 34 24C34 18.4772 29.5228 14 24 14C18.4772 14 14 18.4772 14 24C14 29.5228 18.4772 34 24 34ZM25.9563 26.0949C25.763 26.2644 25.5167 26.3629 25.024 26.56C22.7142 27.4839 21.5594 27.9459 20.8997 27.4976C20.7433 27.3913 20.6084 27.2564 20.5021 27.1C20.0539 26.4404 20.5158 25.2855 21.4397 22.9757C21.6368 22.483 21.7353 22.2367 21.9048 22.0434C21.948 21.9942 21.9943 21.9478 22.0436 21.9046C22.2368 21.7352 22.4832 21.6366 22.9759 21.4396C25.2856 20.5157 26.4405 20.0537 27.1002 20.502C27.2566 20.6082 27.3915 20.7431 27.4978 20.8995C27.946 21.5592 27.4841 22.7141 26.5602 25.0239C26.3631 25.5165 26.2646 25.7629 26.0951 25.9561C26.0519 26.0054 26.0055 26.0517 25.9563 26.0949Z" fill="white"/>
</svg>
