<svg width="32" height="33" viewBox="0 0 32 33" fill="none" xmlns="http://www.w3.org/2000/svg">
<path fill-rule="evenodd" clip-rule="evenodd" d="M15.9993 29.8332C23.3631 29.8332 29.3327 23.8636 29.3327 16.4998C29.3327 9.13604 23.3631 3.1665 15.9993 3.1665C8.63555 3.1665 2.66602 9.13604 2.66602 16.4998C2.66602 23.8636 8.63555 29.8332 15.9993 29.8332ZM18.6077 19.2931C18.3501 19.519 18.0216 19.6504 17.3647 19.9132C14.285 21.145 12.7452 21.761 11.8656 21.1633C11.6571 21.0216 11.4772 20.8417 11.3355 20.6332C10.7378 19.7537 11.3538 18.2138 12.5857 15.1341C12.8484 14.4772 12.9798 14.1488 13.2058 13.8911C13.2633 13.8254 13.3251 13.7636 13.3908 13.706C13.6485 13.4801 13.9769 13.3487 14.6338 13.0859C17.7135 11.854 19.2534 11.2381 20.1329 11.8358C20.3415 11.9775 20.5213 12.1574 20.663 12.3659C21.2607 13.2454 20.6448 14.7853 19.4129 17.865C19.1501 18.5219 19.0188 18.8503 18.7928 19.108C18.7352 19.1737 18.6734 19.2355 18.6077 19.2931Z" fill="#FF306E"/>
</svg>
