<svg width="49" height="48" viewBox="0 0 49 48" fill="none" xmlns="http://www.w3.org/2000/svg">
<path d="M0.333374 24C0.333374 10.7452 11.0785 0 24.3334 0C37.5882 0 48.3334 10.7452 48.3334 24C48.3334 37.2548 37.5882 48 24.3334 48C11.0785 48 0.333374 37.2548 0.333374 24Z" fill="#FF306E"/>
<path fill-rule="evenodd" clip-rule="evenodd" d="M23.8334 14C19.6912 14 16.3334 17.436 16.3334 21.6744C16.3334 23.9468 17.2994 25.9892 18.832 27.3934C19.3428 27.8614 19.7212 28.2082 19.9894 28.4598C20.1235 28.5855 20.226 28.6838 20.3017 28.7592C20.3394 28.7968 20.3682 28.8266 20.3897 28.8496C20.4004 28.861 20.4084 28.8699 20.4142 28.8766C20.4199 28.8831 20.4226 28.8864 20.4226 28.8864C20.6591 29.1851 20.7103 29.2622 20.7408 29.332C20.7712 29.4018 20.7932 29.4922 20.8529 29.8717C20.8764 30.0216 20.8788 30.2782 20.8788 30.9767L20.8788 31.0067C20.8788 31.4158 20.8788 31.7687 20.9044 32.0583C20.9316 32.3645 20.9916 32.6677 21.1529 32.9535C21.3324 33.2717 21.5906 33.5359 21.9016 33.7196C22.1808 33.8846 22.4772 33.946 22.7764 33.9738C23.0594 34 23.4043 34 23.8041 34H23.8627C24.2625 34 24.6073 34 24.8903 33.9738C25.1896 33.946 25.4859 33.8846 25.7652 33.7196C26.0761 33.5359 26.3344 33.2717 26.5139 32.9535C26.6751 32.6677 26.7352 32.3645 26.7623 32.0583C26.7879 31.7687 26.7879 31.4158 26.7879 31.0067V30.9767C26.7879 30.2782 26.7903 30.0216 26.8139 29.8717C26.8736 29.4922 26.8955 29.4018 26.926 29.332C26.9565 29.2622 27.0077 29.1851 27.2442 28.8864C27.2442 28.8864 27.2452 28.8852 27.2474 28.8826C27.2474 28.8826 27.2504 28.8791 27.2526 28.8766C27.2584 28.8699 27.2664 28.861 27.277 28.8496C27.2985 28.8266 27.3274 28.7968 27.3651 28.7592C27.4408 28.6838 27.5433 28.5855 27.6774 28.4598C27.9456 28.2082 28.324 27.8614 28.8348 27.3934C30.3673 25.9892 31.3334 23.9468 31.3334 21.6744C31.3334 17.436 27.9755 14 23.8334 14ZM25.4042 31.9323C25.411 31.8561 25.4155 31.7714 25.4184 31.6744H22.2483C22.2513 31.7714 22.2558 31.8561 22.2625 31.9323C22.2811 32.1418 22.3124 32.2178 22.3338 32.2558C22.3937 32.3619 22.4797 32.4499 22.5834 32.5112C22.6205 32.5331 22.6948 32.5651 22.8995 32.5841C23.1136 32.604 23.396 32.6047 23.8334 32.6047C24.2707 32.6047 24.5532 32.604 24.7672 32.5841C24.9719 32.5651 25.0462 32.5331 25.0834 32.5112C25.187 32.4499 25.2731 32.3619 25.3329 32.2558C25.3544 32.2178 25.3857 32.1418 25.4042 31.9323Z" fill="white"/>
<path fill-rule="evenodd" clip-rule="evenodd" d="M21.6071 25.3508C21.9657 25.1434 22.4245 25.2659 22.6319 25.6245C22.8491 26 23.2534 26.25 23.7151 26.25C24.1768 26.25 24.5811 26 24.7983 25.6245C25.0057 25.2659 25.4645 25.1434 25.8231 25.3508C26.1816 25.5582 26.3041 26.017 26.0967 26.3755C25.7435 26.9862 25.1605 27.4496 24.4651 27.6464V29C24.4651 29.4142 24.1293 29.75 23.7151 29.75C23.3009 29.75 22.9651 29.4142 22.9651 29V27.6464C22.2697 27.4496 21.6867 26.9862 21.3335 26.3755C21.1261 26.017 21.2486 25.5582 21.6071 25.3508Z" fill="white"/>
</svg>
