<svg width="32" height="32" viewBox="0 0 32 32" fill="none" xmlns="http://www.w3.org/2000/svg">
<g id="Widget Add">
<path id="Vector (Stroke)" fill-rule="evenodd" clip-rule="evenodd" d="M23.3333 3.66675C23.8855 3.66675 24.3333 4.11446 24.3333 4.66675V7.66675H27.3333C27.8855 7.66675 28.3333 8.11446 28.3333 8.66675C28.3333 9.21903 27.8855 9.66675 27.3333 9.66675H24.3333V12.6667C24.3333 13.219 23.8855 13.6667 23.3333 13.6667C22.781 13.6667 22.3333 13.219 22.3333 12.6667V9.66675H19.3333C18.781 9.66675 18.3333 9.21903 18.3333 8.66675C18.3333 8.11446 18.781 7.66675 19.3333 7.66675H22.3333V4.66675C22.3333 4.11446 22.781 3.66675 23.3333 3.66675Z" fill="#FF306E"/>
<path id="Rectangle 1880" d="M2.66675 8.66675C2.66675 5.83832 2.66675 4.42411 3.54543 3.54543C4.42411 2.66675 5.83832 2.66675 8.66675 2.66675C11.4952 2.66675 12.9094 2.66675 13.7881 3.54543C14.6667 4.42411 14.6667 5.83832 14.6667 8.66675C14.6667 11.4952 14.6667 12.9094 13.7881 13.7881C12.9094 14.6667 11.4952 14.6667 8.66675 14.6667C5.83832 14.6667 4.42411 14.6667 3.54543 13.7881C2.66675 12.9094 2.66675 11.4952 2.66675 8.66675Z" fill="#FF306E"/>
<path id="Rectangle 1884" d="M17.3333 23.3333C17.3333 20.5048 17.3333 19.0906 18.2119 18.2119C19.0906 17.3333 20.5048 17.3333 23.3333 17.3333C26.1617 17.3333 27.5759 17.3333 28.4546 18.2119C29.3333 19.0906 29.3333 20.5048 29.3333 23.3333C29.3333 26.1617 29.3333 27.5759 28.4546 28.4546C27.5759 29.3333 26.1617 29.3333 23.3333 29.3333C20.5048 29.3333 19.0906 29.3333 18.2119 28.4546C17.3333 27.5759 17.3333 26.1617 17.3333 23.3333Z" fill="#FF306E"/>
<path id="Rectangle 1883" d="M2.66675 23.3333C2.66675 20.5048 2.66675 19.0906 3.54543 18.2119C4.42411 17.3333 5.83832 17.3333 8.66675 17.3333C11.4952 17.3333 12.9094 17.3333 13.7881 18.2119C14.6667 19.0906 14.6667 20.5048 14.6667 23.3333C14.6667 26.1617 14.6667 27.5759 13.7881 28.4546C12.9094 29.3333 11.4952 29.3333 8.66675 29.3333C5.83832 29.3333 4.42411 29.3333 3.54543 28.4546C2.66675 27.5759 2.66675 26.1617 2.66675 23.3333Z" fill="#FF306E"/>
</g>
</svg>
