<svg width="49" height="49" viewBox="0 0 49 49" fill="none" xmlns="http://www.w3.org/2000/svg">
<path d="M0.333496 24.5C0.333496 11.2452 11.0787 0.5 24.3335 0.5C37.5883 0.5 48.3335 11.2452 48.3335 24.5C48.3335 37.7548 37.5883 48.5 24.3335 48.5C11.0787 48.5 0.333496 37.7548 0.333496 24.5Z" fill="#F6B51E"/>
<path fill-rule="evenodd" clip-rule="evenodd" d="M22.001 25.8689C22.7872 25.1182 22.7872 23.8818 22.001 23.1311L21.8936 23.0286C19.8785 21.1053 18.3218 19.6202 17.8526 16.5073C17.6866 15.4097 18.627 14.5 19.7588 14.5H24.3335H28.9083C30.0401 14.5 30.9805 15.4097 30.8145 16.5073C30.3453 19.6202 28.7886 21.1053 26.7735 23.0286L26.6661 23.1311C25.8799 23.8818 25.8799 25.1182 26.6661 25.8689L26.7735 25.9714C28.7886 27.8947 30.3453 29.3798 30.8145 32.4927C30.9805 33.5903 30.0401 34.5 28.9083 34.5H24.3335H19.7588C18.627 34.5 17.6866 33.5903 17.8526 32.4927C18.3218 29.3798 19.8785 27.8947 21.8936 25.9714L22.001 25.8689ZM22.6841 27.5665L22.6768 27.5728C21.1412 28.9459 19.9986 29.9681 19.8497 32.4963C19.8404 32.6519 19.9078 32.7915 20.0176 32.884C20.1031 32.9564 20.2149 33 20.337 33H24.3335H28.3296C28.4737 33 28.6036 32.9392 28.6929 32.8422C28.7764 32.7518 28.8248 32.63 28.8169 32.4963C28.668 29.9681 27.5254 28.9459 25.9903 27.5728C25.584 27.2096 25.1504 26.8218 24.7007 26.3751C24.4981 26.1738 24.1685 26.1738 23.9659 26.3751C23.5186 26.8192 23.0875 27.2052 22.6841 27.5665Z" fill="white"/>
</svg>
