<svg width="16" height="17" viewBox="0 0 16 17" fill="none" xmlns="http://www.w3.org/2000/svg">
<g id="Layer_2" clip-path="url(#clip0_34_3677)">
<g id="Icon">
<path id="39" d="M11.3125 0.75H4.6875C2.09875 0.75 0 2.84875 0 5.4375V12.0625C0 14.6512 2.09875 16.75 4.6875 16.75H11.3125C13.9012 16.75 16 14.6512 16 12.0625V5.4375C16 2.84875 13.9012 0.75 11.3125 0.75ZM12.5312 8.75C12.5312 9.18156 12.1816 9.53125 11.75 9.53125H8.78125V12.5C8.78125 12.9316 8.43156 13.2812 8 13.2812C7.56844 13.2812 7.21875 12.9316 7.21875 12.5V9.53125H4.25C3.81844 9.53125 3.46875 9.18156 3.46875 8.75C3.46875 8.31844 3.81844 7.96875 4.25 7.96875H7.21875V5C7.21875 4.56844 7.56844 4.21875 8 4.21875C8.43156 4.21875 8.78125 4.56844 8.78125 5V7.96875H11.75C12.1816 7.96875 12.5312 8.31844 12.5312 8.75Z" fill="white"/>
</g>
</g>
<defs>
<clipPath id="clip0_34_3677">
<rect width="16" height="16" fill="white" transform="translate(0 0.75)"/>
</clipPath>
</defs>
</svg>
