<svg width="49" height="48" viewBox="0 0 49 48" fill="none" xmlns="http://www.w3.org/2000/svg">
<path d="M0.333496 24C0.333496 10.7452 11.0787 0 24.3335 0C37.5883 0 48.3335 10.7452 48.3335 24C48.3335 37.2548 37.5883 48 24.3335 48C11.0787 48 0.333496 37.2548 0.333496 24Z" fill="#FF306E"/>
<path d="M35.3335 24.0001C35.3335 23.8143 35.2818 23.6321 35.1842 23.474C35.0865 23.3159 34.9467 23.1882 34.7805 23.1051L31.5695 21.5001L34.7805 19.9001C34.9469 19.8172 35.0869 19.6895 35.1847 19.5314C35.2826 19.3733 35.3344 19.191 35.3344 19.0051C35.3344 18.8192 35.2826 18.6369 35.1847 18.4788C35.0869 18.3207 34.9469 18.193 34.7805 18.1101L24.7805 13.1101C24.6417 13.0407 24.4886 13.0046 24.3335 13.0046C24.1783 13.0046 24.0253 13.0407 23.8865 13.1101L13.8865 18.1101C13.72 18.193 13.5801 18.3207 13.4822 18.4788C13.3844 18.6369 13.3325 18.8192 13.3325 19.0051C13.3325 19.191 13.3844 19.3733 13.4822 19.5314C13.5801 19.6895 13.72 19.8172 13.8865 19.9001L17.0975 21.5001L13.8865 23.1051C13.72 23.188 13.5801 23.3157 13.4822 23.4738C13.3844 23.6319 13.3325 23.8142 13.3325 24.0001C13.3325 24.186 13.3844 24.3683 13.4822 24.5264C13.5801 24.6845 13.72 24.8122 13.8865 24.8951L17.0975 26.5001L13.8865 28.1051C13.72 28.188 13.5801 28.3157 13.4822 28.4738C13.3844 28.6319 13.3325 28.8142 13.3325 29.0001C13.3325 29.186 13.3844 29.3683 13.4822 29.5264C13.5801 29.6845 13.72 29.8122 13.8865 29.8951L23.8865 34.8951C24.0253 34.9645 24.1783 35.0006 24.3335 35.0006C24.4886 35.0006 24.6417 34.9645 24.7805 34.8951L34.7805 29.8951C34.9469 29.8122 35.0869 29.6845 35.1847 29.5264C35.2826 29.3683 35.3344 29.186 35.3344 29.0001C35.3344 28.8142 35.2826 28.6319 35.1847 28.4738C35.0869 28.3157 34.9469 28.188 34.7805 28.1051L31.5695 26.5001L34.7805 24.9001C34.9475 24.8167 35.0878 24.6881 35.1855 24.5291C35.2832 24.37 35.3345 24.1868 35.3335 24.0001ZM32.0975 29.0001L24.3335 32.8821L16.5695 29.0001L19.3335 27.6181L23.8865 29.9001C24.0253 29.9695 24.1783 30.0056 24.3335 30.0056C24.4886 30.0056 24.6417 29.9695 24.7805 29.9001L29.3335 27.6181L32.0975 29.0001ZM24.3335 27.8821L16.5695 24.0001L19.3335 22.6181L23.8865 24.9001C24.0253 24.9695 24.1783 25.0056 24.3335 25.0056C24.4886 25.0056 24.6417 24.9695 24.7805 24.9001L29.3335 22.6181L32.0975 24.0001L24.3335 27.8821Z" fill="white"/>
</svg>
