<svg
  xmlns="http://www.w3.org/2000/svg"
  width="16"
  height="16"
  viewBox="0 0 16 16"
  fill="none"
>
  <g clip-path="url(#clip0_1_1464)">
    <path
      d="M15.6248 6.99407L14.5402 5.734C14.3329 5.49475 14.1654 5.04814 14.1654 4.72914V3.37338C14.1654 2.52802 13.4716 1.83419 12.6262 1.83419H11.2704C10.9594 1.83419 10.5048 1.66671 10.2656 1.45936L9.00552 0.374748C8.45524 -0.0957818 7.55406 -0.0957818 6.9958 0.374748L5.74368 1.46733C5.50443 1.66671 5.04985 1.83419 4.73882 1.83419H3.35914C2.51378 1.83419 1.81995 2.52802 1.81995 3.37338V4.73712C1.81995 5.04814 1.65247 5.49475 1.45309 5.734L0.376457 7.00205C-0.0860976 7.55233 -0.0860976 8.44553 0.376457 8.99581L1.45309 10.2639C1.65247 10.5031 1.81995 10.9497 1.81995 11.2607V12.6245C1.81995 13.4698 2.51378 14.1637 3.35914 14.1637H4.73882C5.04985 14.1637 5.50443 14.3311 5.74368 14.5385L7.00378 15.6231C7.55406 16.0936 8.45524 16.0936 9.0135 15.6231L10.2736 14.5385C10.5128 14.3311 10.9594 14.1637 11.2784 14.1637H12.6342C13.4795 14.1637 14.1734 13.4698 14.1734 12.6245V11.2687C14.1734 10.9577 14.3409 10.5031 14.5482 10.2639L15.6328 9.00379C16.0954 8.45351 16.0954 7.54435 15.6248 6.99407ZM11.3183 6.49164L7.46633 10.3436C7.35468 10.4553 7.20316 10.5191 7.04365 10.5191C6.88415 10.5191 6.73263 10.4553 6.62097 10.3436L4.69097 8.41363C4.4597 8.18236 4.4597 7.79955 4.69097 7.56828C4.92225 7.337 5.30506 7.337 5.53633 7.56828L7.04365 9.07557L10.4729 5.64627C10.7042 5.415 11.087 5.415 11.3183 5.64627C11.5496 5.87755 11.5496 6.26035 11.3183 6.49164Z"
      fill="#FF306E"
    />
  </g>
  <defs>
    <clipPath id="clip0_1_1464">
      <rect width="16" height="16" fill="white" />
    </clipPath>
  </defs>
</svg>