<svg width="20" height="20" viewBox="0 0 20 20" fill="none" xmlns="http://www.w3.org/2000/svg">
<g id="vuesax/bold/wallet-3">
<g id="wallet-3">
<path id="Vector" d="M18.3334 10.5167V12.2333C18.3334 12.7 17.95 13.0833 17.475 13.0833H15.8667C14.9667 13.0833 14.1417 12.425 14.0667 11.525C14.0167 11 14.2167 10.5083 14.5667 10.1667C14.875 9.85 15.3 9.66667 15.7667 9.66667H17.475C17.95 9.66667 18.3334 10.05 18.3334 10.5167Z" fill="white"/>
<path id="Vector_2" d="M12.8165 11.6333C12.7415 10.7583 13.0582 9.9 13.6915 9.275C14.2248 8.73333 14.9665 8.41667 15.7665 8.41667H16.2415C16.4748 8.41667 16.6665 8.225 16.6332 7.99167C16.4082 6.375 15.0082 5.125 13.3332 5.125H4.99984C3.15817 5.125 1.6665 6.61667 1.6665 8.45833V14.2917C1.6665 16.1333 3.15817 17.625 4.99984 17.625H13.3332C15.0165 17.625 16.4082 16.375 16.6332 14.7583C16.6665 14.525 16.4748 14.3333 16.2415 14.3333H15.8665C14.2832 14.3333 12.9498 13.15 12.8165 11.6333ZM10.8332 9.91667H5.83317C5.4915 9.91667 5.20817 9.64167 5.20817 9.29167C5.20817 8.94167 5.4915 8.66667 5.83317 8.66667H10.8332C11.1748 8.66667 11.4582 8.95 11.4582 9.29167C11.4582 9.63333 11.1748 9.91667 10.8332 9.91667Z" fill="white"/>
<path id="Vector_3" d="M11.8419 3.31667C12.0585 3.54167 11.8669 3.875 11.5502 3.875H5.02521C4.11687 3.875 3.26687 4.14167 2.55854 4.6C2.23354 4.80833 1.79187 4.58333 1.95021 4.225C2.41687 3.13333 3.50854 2.375 4.76687 2.375H9.45021C10.4169 2.375 11.2752 2.71667 11.8419 3.31667Z" fill="white"/>
</g>
</g>
</svg>
