<svg xmlns="http://www.w3.org/2000/svg" width="32" height="32" viewBox="0 0 32 32" fill="none">
  <path fill-rule="evenodd" clip-rule="evenodd" d="M23.334 3.6665C23.8863 3.6665 24.334 4.11422 24.334 4.6665V7.6665H27.334C27.8863 7.6665 28.334 8.11422 28.334 8.6665C28.334 9.21879 27.8863 9.6665 27.334 9.6665H24.334V12.6665C24.334 13.2188 23.8863 13.6665 23.334 13.6665C22.7817 13.6665 22.334 13.2188 22.334 12.6665V9.6665H19.334C18.7817 9.6665 18.334 9.21879 18.334 8.6665C18.334 8.11422 18.7817 7.6665 19.334 7.6665H22.334V4.6665C22.334 4.11422 22.7817 3.6665 23.334 3.6665Z" fill="#FF306E"/>
  <path d="M2.66602 8.6665C2.66602 5.83808 2.66602 4.42386 3.5447 3.54518C4.42338 2.6665 5.83759 2.6665 8.66602 2.6665C11.4944 2.6665 12.9087 2.6665 13.7873 3.54518C14.666 4.42386 14.666 5.83808 14.666 8.6665C14.666 11.4949 14.666 12.9091 13.7873 13.7878C12.9087 14.6665 11.4944 14.6665 8.66602 14.6665C5.83759 14.6665 4.42338 14.6665 3.5447 13.7878C2.66602 12.9091 2.66602 11.4949 2.66602 8.6665Z" fill="#FF306E"/>
  <path d="M17.334 23.3335C17.334 20.5051 17.334 19.0909 18.2127 18.2122C19.0913 17.3335 20.5056 17.3335 23.334 17.3335C26.1624 17.3335 27.5766 17.3335 28.4553 18.2122C29.334 19.0909 29.334 20.5051 29.334 23.3335C29.334 26.1619 29.334 27.5761 28.4553 28.4548C27.5766 29.3335 26.1624 29.3335 23.334 29.3335C20.5056 29.3335 19.0913 29.3335 18.2127 28.4548C17.334 27.5761 17.334 26.1619 17.334 23.3335Z" fill="#FF306E"/>
  <path d="M2.66602 23.3335C2.66602 20.5051 2.66602 19.0909 3.5447 18.2122C4.42338 17.3335 5.83759 17.3335 8.66602 17.3335C11.4944 17.3335 12.9087 17.3335 13.7873 18.2122C14.666 19.0909 14.666 20.5051 14.666 23.3335C14.666 26.1619 14.666 27.5761 13.7873 28.4548C12.9087 29.3335 11.4944 29.3335 8.66602 29.3335C5.83759 29.3335 4.42338 29.3335 3.5447 28.4548C2.66602 27.5761 2.66602 26.1619 2.66602 23.3335Z" fill="#FF306E"/>
</svg>